<svg height="512" viewBox="0 0 74 74" width="512" xmlns="http://www.w3.org/2000/svg"><g id="color_line" data-name="color line"><path d="m69.17 20.75v43.83a4 4 0 0 1 -4 4h-56.34a4 4 0 0 1 -4-4v-43.83z" fill="#eeefee"/><path d="m69.17 20.75v43.83a4 4 0 0 1 -4 4h-56.34a3.994 3.994 0 0 1 -3.97-3.53 3.59 3.59 0 0 0 .47.03h56.34a4 4 0 0 0 4-4v-40.33z" fill="#e1e6e9"/><path d="m69.17 9.42v11.33h-64.34v-11.33a4 4 0 0 1 4-4h56.34a4 4 0 0 1 4 4z" fill="#05afd6"/><path d="m69.17 9.42v11.33h-3.58v-11.33a4 4 0 0 0 -4-4h3.58a4 4 0 0 1 4 4z" fill="#27a2db"/><g fill="#323c6b"><path d="m37.583 13.333h-27.041a.5.5 0 1 1 0-1h27.041a.5.5 0 0 1 0 1z"/><circle cx="61.376" cy="12.833" r="2.083"/><circle cx="53.104" cy="12.833" r="2.083"/><circle cx="44.833" cy="12.833" r="2.083"/><path d="m47.771 51.16a.5.5 0 0 1 -.306-.9l9.219-7.139-9.219-7.139a.5.5 0 1 1 .611-.791l9.729 7.535a.5.5 0 0 1 0 .791l-9.729 7.535a.5.5 0 0 1 -.305.108z"/><path d="m26.229 51.16a.5.5 0 0 1 -.306-.1l-9.729-7.535a.5.5 0 0 1 0-.791l9.729-7.535a.5.5 0 1 1 .611.791l-9.219 7.139 9.219 7.139a.5.5 0 0 1 -.306.9z"/><path d="m29.875 57.667a.5.5 0 0 1 -.446-.726l14.25-28.083a.5.5 0 0 1 .893.452l-14.251 28.083a.5.5 0 0 1 -.446.274z"/><path d="m1.833 12.521a.5.5 0 0 1 -.5-.5v-.479a.5.5 0 0 1 1 0v.479a.5.5 0 0 1 -.5.5z"/><path d="m1.833 9.917a.5.5 0 0 1 -.5-.5 7.469 7.469 0 0 1 4.7-6.953.5.5 0 0 1 .375.928 6.473 6.473 0 0 0 -4.075 6.025.5.5 0 0 1 -.5.5z"/><path d="m72.167 51.16a.5.5 0 0 1 -.5-.5v-8.785a.5.5 0 0 1 1 0v8.785a.5.5 0 0 1 -.5.5z"/><path d="m72.167 53.969a.5.5 0 0 1 -.5-.5v-.531a.5.5 0 0 1 1 0v.531a.5.5 0 0 1 -.5.5z"/><path d="m65.17 69.08h-56.34a4.5 4.5 0 0 1 -4.5-4.5v-43.83a.5.5 0 0 1 .5-.5h64.34a.5.5 0 0 1 .5.5v43.83a4.5 4.5 0 0 1 -4.5 4.5zm-59.84-47.83v43.33a3.5 3.5 0 0 0 3.5 3.5h56.34a3.5 3.5 0 0 0 3.5-3.5v-43.33z"/><path d="m69.17 21.25h-64.34a.5.5 0 0 1 -.5-.5v-11.33a4.5 4.5 0 0 1 4.5-4.5h56.34a4.5 4.5 0 0 1 4.5 4.5v11.33a.5.5 0 0 1 -.5.5zm-63.84-1h63.34v-10.83a3.5 3.5 0 0 0 -3.5-3.5h-56.34a3.5 3.5 0 0 0 -3.5 3.5z"/></g><path d="m33.406 18.367h-7.917a.6.6 0 1 1 0-1.2h7.917a.6.6 0 1 1 0 1.2z" fill="#fff"/><path d="m36.014 18.4h-.256a.6.6 0 1 1 0-1.2h.256a.6.6 0 1 1 0 1.2z" fill="#fff"/></g></svg>